<svg width="73" height="73" viewBox="0 0 73 73" fill="none" xmlns="http://www.w3.org/2000/svg">
<path d="M68.7552 27.5395L52.1204 24.0812L50.5142 28.3828L57.8512 30.2511L55.5001 42.5H68.0001L71.9387 33.9011C72.2229 33.2805 72.3643 32.6042 72.3526 31.9217C72.3408 31.2393 72.1761 30.5682 71.8707 29.9578C71.5652 29.3474 71.1268 28.8133 70.5876 28.3948C70.0485 27.9763 69.4223 27.684 68.7552 27.5395Z" fill="#D20526"/>
<path d="M48.6267 23.375L52.1204 24.0812L50.5142 28.3828L45.4563 27.0953L41.5454 15.2672L45.4563 14.225L48.6267 23.375Z" fill="#FF9AC0"/>
<path d="M47.6183 10.3359L45.3995 11.6006C42.3424 13.3438 38.8805 13.9531 35.5508 13.3328L34.116 21.0447C33.0361 26.8481 34.6081 32.7634 38.3225 36.8717L41.9375 40.87L46.7481 38.4392C51.6917 35.9413 55.286 30.9878 56.3658 25.1844L57.8006 17.4727C54.471 16.8531 51.4597 15.0398 49.2339 12.3139L47.6183 10.3359Z" fill="#3B69B0"/>
<path d="M40.1476 34.552C37.1424 31.2276 35.8698 26.4398 36.7435 21.7445L37.7207 16.4925C40.6622 16.6483 43.586 15.9491 46.1388 14.4795L46.9313 14.0276L47.5085 14.7344C49.3619 17.0239 51.8385 18.7279 54.6393 19.6406L53.6621 24.8926C52.7883 29.588 49.879 33.5978 45.8793 35.6187L42.6065 37.2725L40.1476 34.552Z" fill="#1B53A6"/>
<path d="M65.7441 27.3437L65.6816 22.1381L63.6243 24.0669V27.3564C63.6243 27.5818 63.6961 27.8013 63.8293 27.9831C63.9626 28.1649 64.1503 28.2995 64.3652 28.3673C64.525 28.4177 64.6945 28.4295 64.8598 28.4017C65.025 28.374 65.1814 28.3074 65.3159 28.2075C65.4505 28.1076 65.5594 27.9773 65.6339 27.8271C65.7083 27.677 65.7461 27.5113 65.7441 27.3437Z" fill="#FF9AC0"/>
<path d="M66.75 55L68 42.5H55.5L50.0365 52.3344C49.5206 53.2628 49.2499 54.3074 49.25 55.3695V70L46.3593 71.9275C46.3035 71.9647 46.2612 72.0189 46.2386 72.082C46.2159 72.1452 46.2142 72.2139 46.2336 72.2781C46.2531 72.3423 46.2927 72.3985 46.3465 72.4385C46.4004 72.4784 46.4657 72.5 46.5328 72.5H55.5V55L59.25 48.75H61.75L60.77 54.63C60.5929 55.692 60.6933 56.7817 61.0612 57.7934L65.5 70L62.6094 71.9275C62.5536 71.9647 62.5112 72.0189 62.4886 72.082C62.4659 72.1452 62.4642 72.2139 62.4836 72.2781C62.5031 72.3423 62.5427 72.3985 62.5965 72.4385C62.6504 72.4784 62.7157 72.5 62.7828 72.5H71.75V71.9914C71.75 70.6724 71.5373 69.3621 71.1203 68.1108L66.75 55Z" fill="#1B53A6"/>
<path d="M65.0485 36.5562L65.2579 36.8891L63.3954 38.0656C62.6834 38.5162 61.8877 38.818 61.0561 38.9531C60.2245 39.0882 59.3742 39.0536 58.5563 38.8516L44.861 35.4672C44.737 35.4365 44.6207 35.3808 44.519 35.3036C44.4173 35.2264 44.3325 35.1292 44.2698 35.018C44.207 34.9068 44.1676 34.7839 44.154 34.657C44.1404 34.53 44.1529 34.4016 44.1907 34.2797L45.0047 31.6578C45.0771 31.4246 45.2375 31.2288 45.452 31.1121C45.6665 30.9953 45.9181 30.9669 46.1532 31.0328L47.2547 31.3422L47.4563 30.5781C47.5003 30.4124 47.5978 30.2658 47.7337 30.1612C47.8697 30.0567 48.0364 30 48.2079 30H48.7969L49.0516 31.8453L60.061 34.9297L63.0078 33.0594L65.0485 36.5562Z" fill="#FF9AC0"/>
<path d="M71.5172 29.9156C71.7253 30.1583 71.8788 30.4428 71.9672 30.75C72.0556 31.0572 72.0769 31.3798 72.0296 31.696C71.9823 32.0121 71.8676 32.3144 71.6932 32.5822C71.5188 32.8501 71.2887 33.0773 71.0188 33.2484L65.2578 36.8891L65.0484 36.5563L63.0078 33.0594L68.6359 29.4875C69.0875 29.2007 69.6272 29.0862 70.1563 29.1648C70.6854 29.2434 71.1685 29.51 71.5172 29.9156Z" fill="#F12435"/>
<path d="M63.2007 32.1968L68.2715 28.9781C68.4085 28.8872 68.5749 28.8518 68.737 28.8789C68.8991 28.906 69.0449 28.9936 69.1449 29.124C69.1942 29.1932 69.229 29.2716 69.2469 29.3546C69.2649 29.4376 69.2658 29.5234 69.2495 29.6068C69.2333 29.6901 69.2002 29.7693 69.1523 29.8394C69.1044 29.9095 69.0427 29.9692 68.971 30.0147L63.8704 33.2522C63.7305 33.3409 63.561 33.3705 63.3992 33.3344C63.2375 33.2982 63.0967 33.1993 63.0079 33.0593C62.9191 32.9194 62.8895 32.7499 62.9257 32.5882C62.9619 32.4264 63.0608 32.2857 63.2007 32.1968Z" fill="#C4001A"/>
<path d="M65.2578 36.8891C65.214 36.8197 65.1842 36.7423 65.1702 36.6614C65.1563 36.5805 65.1584 36.4977 65.1765 36.4176C65.1945 36.3375 65.2282 36.2618 65.2755 36.1947C65.3229 36.1276 65.383 36.0706 65.4524 36.0267L69.3883 33.5394C69.5285 33.4508 69.698 33.4216 69.8597 33.4581C70.0214 33.4946 70.162 33.5938 70.2506 33.734C70.3391 33.8741 70.3683 34.0437 70.3318 34.2054C70.2953 34.3671 70.1961 34.5077 70.056 34.5962L66.1202 37.0834C66.0508 37.1273 65.9734 37.1571 65.8926 37.171C65.8117 37.185 65.7288 37.1829 65.6487 37.1649C65.5687 37.1468 65.4929 37.1132 65.4258 37.0658C65.3588 37.0185 65.3017 36.9584 65.2578 36.8891Z" fill="#C4001A"/>
<path d="M65.6814 20.4298H62.0811V24.0301C62.0811 24.4394 62.2436 24.8318 62.533 25.1212C62.8223 25.4106 63.2148 25.5732 63.624 25.5732C63.8942 25.5732 64.1618 25.52 64.4114 25.4166C64.661 25.3132 64.8878 25.1616 65.0789 24.9706C65.2699 24.7795 65.4215 24.5526 65.5248 24.303C65.6282 24.0534 65.6814 23.7858 65.6814 23.5156V20.4298Z" fill="#FF9AC0"/>
<path d="M60.0691 17.5V20.2491C60.0691 20.4915 60.1302 20.73 60.2469 20.9425C60.3636 21.155 60.5321 21.3345 60.7367 21.4646C60.9413 21.5946 61.1754 21.6709 61.4173 21.6864C61.6592 21.7019 61.9012 21.656 62.1207 21.5531L64.1832 20.5861C64.1832 21.1317 64.3999 21.655 64.7857 22.0409C65.1716 22.4267 65.6949 22.6434 66.2405 22.6434H66.7549V20.2938C66.7549 19.8023 66.579 19.3271 66.259 18.9541C65.939 18.5812 65.4961 18.335 65.0103 18.2603L60.0691 17.5Z" fill="#0E3E86"/>
<path d="M65.5681 23.7888C66.224 23.7888 66.7556 23.2571 66.7556 22.6013C66.7556 21.9454 66.224 21.4138 65.5681 21.4138C64.9123 21.4138 64.3806 21.9454 64.3806 22.6013C64.3806 23.2571 64.9123 23.7888 65.5681 23.7888Z" fill="#FF9AC0"/>
<path d="M22.5474 10.9318L26.2961 7.0536L27.1949 7.92235L23.4461 11.8006L22.5474 10.9318Z" fill="#C4001A"/>
<path d="M29.2501 24.375C29.1582 24.3749 29.0675 24.3545 28.9844 24.3152L24.2568 22.0872C24.1092 22.0151 23.9959 21.8879 23.9414 21.7329C23.8869 21.5779 23.8956 21.4077 23.9656 21.2591C24.0357 21.1106 24.1614 20.9955 24.3156 20.9389C24.4698 20.8823 24.6401 20.8886 24.7896 20.9566L29.5173 23.1846C29.6459 23.2451 29.75 23.3477 29.8125 23.4754C29.8749 23.603 29.892 23.7482 29.8609 23.8869C29.8297 24.0256 29.7523 24.1495 29.6412 24.2383C29.5302 24.327 29.3922 24.3752 29.2501 24.375Z" fill="#C4001A"/>
<path d="M16.75 33.125C16.5842 33.125 16.4253 33.0592 16.3081 32.9419C16.1908 32.8247 16.125 32.6658 16.125 32.5V26.25C16.125 26.0842 16.1908 25.9253 16.3081 25.8081C16.4253 25.6908 16.5842 25.625 16.75 25.625C17.0952 25.625 17.375 25.9048 16.9959 26.25V32.5C17.375 32.8452 17.0952 33.125 16.75 33.125Z" fill="#C4001A"/>
<path d="M13.6542 9.93938C13.5302 9.93928 13.4089 9.90225 13.306 9.83302C13.203 9.76379 13.123 9.66549 13.0761 9.55063L10.5469 3.36141C10.4911 3.20948 10.4964 3.04182 10.5617 2.89372C10.627 2.74563 10.7472 2.62863 10.897 2.56737C11.0468 2.50611 11.2145 2.50536 11.3649 2.56527C11.5153 2.62518 11.6365 2.74109 11.7031 2.88859L14.2327 9.07812C14.2714 9.173 14.2863 9.27596 14.2759 9.37792C14.2655 9.47988 14.2302 9.57772 14.1731 9.66283C14.1159 9.74793 14.0388 9.81768 13.9484 9.86593C13.8579 9.91418 13.757 9.93946 13.6545 9.93953L13.6542 9.93938Z" fill="#C4001A"/>
<path d="M18.625 9.37499C18.5276 9.37504 18.4315 9.35229 18.3444 9.30856C18.2572 9.26483 18.1816 9.20134 18.1234 9.12315C18.0652 9.04497 18.0261 8.95425 18.0092 8.85826C17.9923 8.76227 17.9981 8.66366 18.0261 8.5703L19.9011 2.3203C19.9498 2.16271 20.0587 2.03072 20.2042 1.9531C20.3498 1.87549 20.5201 1.85855 20.678 1.90597C20.836 1.95339 20.9688 2.06132 21.0476 2.20625C21.1263 2.35118 21.1445 2.52135 21.0983 2.67968L19.2233 8.92968C19.1847 9.05835 19.1057 9.17115 18.9979 9.25136C18.8901 9.33157 18.7594 9.37492 18.625 9.37499Z" fill="#C4001A"/>
<path d="M25.4148 16.9029C25.2619 16.9031 25.1143 16.8471 24.9998 16.7457C24.8854 16.6444 24.8121 16.5045 24.7938 16.3528C24.7755 16.201 24.8135 16.0478 24.9005 15.9221C24.9875 15.7964 25.1176 15.707 25.2662 15.6708L29.101 14.7289C29.1809 14.7088 29.264 14.7046 29.3455 14.7167C29.427 14.7289 29.5052 14.757 29.5758 14.7994C29.6464 14.8419 29.7079 14.8979 29.7568 14.9642C29.8057 15.0306 29.8409 15.1059 29.8606 15.1859C29.8802 15.2659 29.8839 15.349 29.8713 15.4304C29.8587 15.5118 29.8301 15.59 29.7873 15.6603C29.7444 15.7306 29.688 15.7918 29.6214 15.8403C29.5548 15.8888 29.4793 15.9236 29.3991 15.9428L25.5643 16.8848C25.5153 16.8968 25.4651 16.9029 25.4148 16.9029Z" fill="#C4001A"/>
<path d="M23.3883 30.4219C23.2758 30.422 23.1654 30.3917 23.0687 30.3343C22.972 30.2768 22.8925 30.1943 22.8388 30.0955L20.3388 25.503C20.2995 25.4309 20.2749 25.3517 20.2662 25.27C20.2575 25.1884 20.265 25.1058 20.2883 25.027C20.3115 24.9482 20.35 24.8748 20.4017 24.8109C20.4533 24.7471 20.517 24.694 20.5891 24.6547C20.6612 24.6154 20.7404 24.5908 20.8221 24.5821C20.9037 24.5734 20.9863 24.5809 21.0651 24.6042C21.1439 24.6274 21.2173 24.666 21.2812 24.7176C21.345 24.7692 21.3981 24.8329 21.4374 24.905L23.9374 29.4975C23.9892 29.5927 24.0154 29.6997 24.0134 29.808C24.0114 29.9163 23.9812 30.0223 23.9259 30.1155C23.8706 30.2086 23.792 30.2858 23.6979 30.3395C23.6038 30.3931 23.4973 30.4214 23.3889 30.4214L23.3883 30.4219Z" fill="#C4001A"/>
<path d="M4.8751 28.75C4.74559 28.75 4.61927 28.7098 4.51361 28.6349C4.40795 28.56 4.32816 28.4542 4.28527 28.332C4.24238 28.2098 4.23851 28.0773 4.2742 27.9528C4.30988 27.8283 4.38336 27.7179 4.48447 27.637L10.1095 23.1348C10.2389 23.0312 10.4042 22.9833 10.569 23.0016C10.7338 23.0198 10.8845 23.1028 10.9881 23.2322C11.0917 23.3617 11.1397 23.527 11.1214 23.6918C11.1031 23.8565 11.0202 24.0073 10.8907 24.1109L5.26572 28.6129C5.15497 28.7019 5.01713 28.7502 4.8751 28.75Z" fill="#C4001A"/>
<path d="M8.0225 17.5H2.375C2.20924 17.5 2.05027 17.4342 1.93306 17.3169C1.81585 17.1997 1.75 17.0408 1.75 16.875C1.75 16.7092 1.81585 16.5503 1.93306 16.4331C2.05027 16.3158 2.20924 16.25 2.375 16.25H8.0225C8.18826 16.25 8.34723 16.3158 8.46444 16.4331C8.58165 16.5503 8.6475 16.7092 8.6475 16.875C8.6475 17.0408 8.58165 17.1997 8.46444 17.3169C8.34723 17.4342 8.18826 17.5 8.0225 17.5Z" fill="#C4001A"/>
<path d="M9.4784 13.2574C9.3148 13.2576 9.15765 13.1935 9.0409 13.0789L5.4484 9.5611C5.32997 9.44507 5.26247 9.28674 5.26078 9.12095C5.25908 8.95515 5.32331 8.79547 5.43934 8.67704C5.55537 8.5586 5.7137 8.49111 5.87949 8.48941C6.04529 8.48771 6.20497 8.55194 6.3234 8.66798L9.91574 12.1856C10.0045 12.2725 10.0654 12.3839 10.0906 12.5055C10.1158 12.6272 10.1042 12.7536 10.0573 12.8686C10.0103 12.9836 9.93016 13.082 9.82703 13.1512C9.7239 13.2205 9.60247 13.2574 9.47824 13.2574H9.4784Z" fill="#C4001A"/>
<path d="M16.75 26.875C14.8958 26.875 13.0832 26.3252 11.5415 25.295C9.99982 24.2649 8.79821 22.8007 8.08863 21.0877C7.37906 19.3746 7.19341 17.4896 7.55514 15.671C7.91688 13.8525 8.80976 12.182 10.1209 10.8709C11.432 9.55976 13.1025 8.66688 14.921 8.30514C16.7396 7.94341 18.6246 8.12906 20.3377 8.83863C22.0507 9.54821 23.5149 10.7498 24.545 12.2915C25.5752 13.8332 26.125 15.6458 26.125 17.5C26.1222 19.9855 25.1336 22.3685 23.376 24.126C21.6185 25.8836 19.2355 26.8722 16.75 26.875Z" fill="#F12435"/>
<path d="M11.125 5C12.1605 5 13 4.16053 13 3.125C13 2.08947 12.1605 1.25 11.125 1.25C10.0895 1.25 9.25 2.08947 9.25 3.125C9.25 4.16053 10.0895 5 11.125 5Z" fill="#F12435"/>
<path d="M20.5 5C21.8807 5 23 3.88071 23 2.5C23 1.11929 21.8807 0 20.5 0C19.1193 0 18 1.11929 18 2.5C18 3.88071 19.1193 5 20.5 5Z" fill="#F12435"/>
<path d="M26.75 8.75C27.4404 8.75 28 8.19036 28 7.5C28 6.80964 27.4404 6.25 26.75 6.25C26.0596 6.25 25.5 6.80964 25.5 7.5C25.5 8.19036 26.0596 8.75 26.75 8.75Z" fill="#F12435"/>
<path d="M5.88574 10.3645C6.5761 10.3645 7.13574 9.80486 7.13574 9.1145C7.13574 8.42415 6.5761 7.8645 5.88574 7.8645C5.19539 7.8645 4.63574 8.42415 4.63574 9.1145C4.63574 9.80486 5.19539 10.3645 5.88574 10.3645Z" fill="#F12435"/>
<path d="M2.375 18.75C3.41053 18.75 4.25 17.9105 4.25 16.875C4.25 15.8395 3.41053 15 2.375 15C1.33947 15 0.5 15.8395 0.5 16.875C0.5 17.9105 1.33947 18.75 2.375 18.75Z" fill="#F12435"/>
<path d="M16.75 35C18.1307 35 19.25 33.8807 19.25 32.5C19.25 31.1193 18.1307 30 16.75 30C15.3693 30 14.25 31.1193 14.25 32.5C14.25 33.8807 15.3693 35 16.75 35Z" fill="#F12435"/>
<path d="M4.875 31.25C6.60089 31.25 8 29.8509 8 28.125C8 26.3991 6.60089 25 4.875 25C3.14911 25 1.75 26.3991 1.75 28.125C1.75 29.8509 3.14911 31.25 4.875 31.25Z" fill="#F12435"/>
<path d="M23.7668 31.0463C24.4572 31.0463 25.0168 30.4866 25.0168 29.7963C25.0168 29.1059 24.4572 28.5463 23.7668 28.5463C23.0765 28.5463 22.5168 29.1059 22.5168 29.7963C22.5168 30.4866 23.0765 31.0463 23.7668 31.0463Z" fill="#F12435"/>
<path d="M29.25 26.25C30.6307 26.25 31.75 25.1307 31.75 23.75C31.75 22.3693 30.6307 21.25 29.25 21.25C27.8693 21.25 26.75 22.3693 26.75 23.75C26.75 25.1307 27.8693 26.25 29.25 26.25Z" fill="#F12435"/>
<path d="M29.25 16.5859C29.9404 16.5859 30.5 16.0263 30.5 15.3359C30.5 14.6456 29.9404 14.0859 29.25 14.0859C28.5596 14.0859 28 14.6456 28 15.3359C28 16.0263 28.5596 16.5859 29.25 16.5859Z" fill="#F12435"/>
<path d="M12.7626 15.1821C13.3586 15.1821 13.8418 14.6989 13.8418 14.1028C13.8418 13.5068 13.3586 13.0236 12.7626 13.0236C12.1665 13.0236 11.6833 13.5068 11.6833 14.1028C11.6833 14.6989 12.1665 15.1821 12.7626 15.1821Z" fill="#C4001A"/>
<path d="M12.6545 21.7097C13.7136 21.7097 14.5721 20.8511 14.5721 19.792C14.5721 18.733 13.7136 17.8744 12.6545 17.8744C11.5954 17.8744 10.7368 18.733 10.7368 19.792C10.7368 20.8511 11.5954 21.7097 12.6545 21.7097Z" fill="#C4001A"/>
<path d="M18.4885 22.9394C19.1451 22.9394 19.6774 22.4071 19.6774 21.7505C19.6774 21.0939 19.1451 20.5616 18.4885 20.5616C17.8319 20.5616 17.2996 21.0939 17.2996 21.7505C17.2996 22.4071 17.8319 22.9394 18.4885 22.9394Z" fill="#C4001A"/>
<path d="M19.8811 17.6541C21.048 17.6541 21.9939 16.7082 21.9939 15.5413C21.9939 14.3744 21.048 13.4285 19.8811 13.4285C18.7142 13.4285 17.7683 14.3744 17.7683 15.5413C17.7683 16.7082 18.7142 17.6541 19.8811 17.6541Z" fill="#C4001A"/>
<path d="M16.757 12.5459C17.3077 12.5459 17.7541 12.0996 17.7541 11.5489C17.7541 10.9983 17.3077 10.5519 16.757 10.5519C16.2064 10.5519 15.76 10.9983 15.76 11.5489C15.76 12.0996 16.2064 12.5459 16.757 12.5459Z" fill="#C4001A"/>
<path d="M12.6429 52.9466C12.4982 52.9464 12.3581 52.896 12.2464 52.804C12.1348 52.712 12.0585 52.5841 12.0305 52.4421C12.0026 52.3002 12.0248 52.1529 12.0934 52.0255C12.1619 51.8981 12.2725 51.7984 12.4063 51.7434L16.828 49.9364C16.9043 49.9042 16.9861 49.8875 17.0688 49.8872C17.1516 49.8868 17.2335 49.9029 17.31 49.9345C17.3864 49.9661 17.4559 50.0126 17.5142 50.0712C17.5726 50.1299 17.6187 50.1995 17.65 50.2761C17.6812 50.3527 17.6969 50.4348 17.6962 50.5175C17.6955 50.6002 17.6784 50.682 17.6459 50.758C17.6133 50.8341 17.566 50.9029 17.5066 50.9606C17.4473 51.0182 17.3771 51.0635 17.3001 51.0938L12.8791 52.9002C12.8041 52.9308 12.7239 52.9466 12.6429 52.9466Z" fill="#C4001A"/>
<path d="M16.661 47.5894C16.6 47.5894 16.5394 47.5805 16.481 47.5629L12.0168 46.2236C11.9376 46.2005 11.8638 46.162 11.7996 46.1102C11.7354 46.0584 11.6821 45.9945 11.6427 45.922C11.6033 45.8495 11.5787 45.77 11.5702 45.6879C11.5617 45.6059 11.5696 45.523 11.5933 45.444C11.617 45.365 11.6561 45.2914 11.7084 45.2276C11.7606 45.1638 11.825 45.111 11.8978 45.0722C11.9706 45.0334 12.0503 45.0093 12.1324 45.0015C12.2145 44.9936 12.2974 45.0021 12.3762 45.0264L16.8404 46.3657C16.9841 46.4087 17.1076 46.502 17.1883 46.6286C17.2689 46.7551 17.3013 46.9065 17.2796 47.055C17.2578 47.2035 17.1834 47.3392 17.0698 47.4373C16.9563 47.5354 16.8112 47.5894 16.6612 47.5894H16.661Z" fill="#C4001A"/>
<path d="M18.537 44.4642C18.3749 44.4644 18.219 44.4013 18.1025 44.2884L15.3331 41.6094C15.2737 41.5524 15.226 41.4843 15.193 41.4089C15.1599 41.3335 15.1421 41.2523 15.1405 41.1699C15.1389 41.0876 15.1536 41.0058 15.1838 40.9291C15.2139 40.8525 15.2589 40.7826 15.3162 40.7234C15.3734 40.6642 15.4418 40.6169 15.5174 40.5843C15.593 40.5516 15.6742 40.5342 15.7566 40.533C15.8389 40.5319 15.9207 40.547 15.9971 40.5775C16.0736 40.6081 16.1433 40.6534 16.2022 40.7109L18.9717 43.3906C19.0612 43.4772 19.1228 43.5885 19.1486 43.7103C19.1744 43.8321 19.1633 43.9589 19.1165 44.0743C19.0698 44.1897 18.9897 44.2885 18.8865 44.3581C18.7832 44.4277 18.6615 44.4649 18.537 44.4649V44.4642Z" fill="#C4001A"/>
<path d="M22.0372 42.7392C21.8974 42.7391 21.7617 42.6922 21.6517 42.6059C21.5418 42.5196 21.4639 42.3989 21.4306 42.2631L20.7578 39.5241C20.7182 39.3631 20.7443 39.193 20.8302 39.0512C20.9161 38.9094 21.0548 38.8075 21.2158 38.768C21.3767 38.7284 21.5469 38.7545 21.6887 38.8404C21.8304 38.9263 21.9323 39.0649 21.9718 39.2259L22.6447 41.965C22.6642 42.0447 22.6679 42.1275 22.6555 42.2087C22.6431 42.2898 22.6148 42.3677 22.5723 42.4379C22.5298 42.5081 22.4738 42.5693 22.4077 42.6179C22.3415 42.6665 22.2664 42.7016 22.1867 42.7211C22.1378 42.7331 22.0876 42.7392 22.0372 42.7392Z" fill="#C4001A"/>
<path d="M25.7833 43.3771C25.6793 43.377 25.5769 43.351 25.4855 43.3014C25.394 43.2518 25.3164 43.1802 25.2596 43.093C25.2029 43.0058 25.1688 42.9058 25.1605 42.8021C25.1521 42.6984 25.1698 42.5942 25.2119 42.4991L27.6963 36.8827C27.7291 36.807 27.7765 36.7384 27.8358 36.6811C27.8952 36.6238 27.9653 36.5788 28.0422 36.5487C28.119 36.5187 28.201 36.5041 28.2835 36.5059C28.366 36.5077 28.4473 36.5258 28.5228 36.5592C28.5983 36.5925 28.6664 36.6405 28.7232 36.7004C28.78 36.7602 28.8244 36.8307 28.8539 36.9078C28.8833 36.9849 28.8972 37.067 28.8947 37.1495C28.8922 37.232 28.8734 37.3131 28.8394 37.3883L26.3551 43.0047C26.3061 43.1155 26.226 43.2097 26.1245 43.2758C26.023 43.3419 25.9045 43.3771 25.7833 43.3771Z" fill="#C4001A"/>
<path d="M28.4139 45.7031C28.2749 45.7033 28.1398 45.6571 28.0299 45.5719C27.9201 45.4867 27.8418 45.3673 27.8075 45.2326C27.7731 45.0979 27.7847 44.9555 27.8403 44.8281C27.8959 44.7007 27.9924 44.5955 28.1145 44.5291L31.3958 42.7434C31.541 42.6682 31.7099 42.6528 31.8663 42.7007C32.0227 42.7486 32.1541 42.8559 32.2323 42.9995C32.3105 43.1432 32.3293 43.3118 32.2846 43.4691C32.2399 43.6264 32.1353 43.76 31.9933 43.8411L28.7129 45.6269C28.6212 45.677 28.5184 45.7032 28.4139 45.7031Z" fill="#C4001A"/>
<path d="M33.6249 48.9286H29.1606C28.9949 48.9286 28.8359 48.8627 28.7187 48.7455C28.6015 48.6283 28.5356 48.4693 28.5356 48.3036C28.5356 48.1378 28.6015 47.9789 28.7187 47.8616C28.8359 47.7444 28.9949 47.6786 29.1606 47.6786H33.6249C33.7906 47.6786 33.9496 47.7444 34.0668 47.8616C34.184 47.9789 34.2499 48.1378 34.2499 48.3036C34.2499 48.4693 34.184 48.6283 34.0668 48.7455C33.9496 48.8627 33.7906 48.9286 33.6249 48.9286Z" fill="#C4001A"/>
<path d="M30.4999 57.4108C30.4061 57.411 30.3135 57.39 30.2289 57.3494C30.1443 57.3088 30.07 57.2497 30.0115 57.1765L26.7968 53.1583C26.6932 53.0289 26.6452 52.8636 26.6635 52.6989C26.6817 52.5341 26.7647 52.3833 26.8941 52.2797C27.0235 52.1761 27.1888 52.1282 27.3536 52.1464C27.5183 52.1647 27.6691 52.2477 27.7727 52.3771L30.9885 56.395C31.0621 56.4869 31.1082 56.5977 31.1216 56.7147C31.1349 56.8317 31.115 56.95 31.064 57.0561C31.0131 57.1623 30.9332 57.2518 30.8336 57.3146C30.734 57.3773 30.6187 57.4106 30.501 57.4107L30.4999 57.4108Z" fill="#C4001A"/>
<path d="M22.4641 59.1964C22.2984 59.1964 22.1394 59.1306 22.0222 59.0134C21.905 58.8961 21.8391 58.7372 21.8391 58.5714V54.5375C21.8391 54.3718 21.905 54.2128 22.0222 54.0956C22.1394 53.9784 22.2984 53.9125 22.4641 53.9125C22.6299 53.9125 22.7888 53.9784 22.9061 54.0956C23.0233 54.2128 23.0891 54.3718 23.0891 54.5375V58.5714C23.0891 58.7372 23.0233 58.8961 22.9061 59.0134C22.7888 59.1306 22.6299 59.1964 22.4641 59.1964Z" fill="#C4001A"/>
<path d="M16.9218 56.6889C16.7987 56.689 16.6783 56.6527 16.5757 56.5846C16.4731 56.5165 16.393 56.4196 16.3452 56.3061C16.2975 56.1926 16.2844 56.0676 16.3075 55.9467C16.3306 55.8257 16.3889 55.7143 16.475 55.6264L18.9877 53.0603C19.1037 52.9419 19.2621 52.8744 19.4279 52.8727C19.5937 52.8709 19.7534 52.9352 19.8718 53.0512C19.9903 53.1672 20.0578 53.3256 20.0595 53.4914C20.0612 53.6572 19.997 53.8169 19.881 53.9353L17.3683 56.5012C17.3102 56.5607 17.2407 56.608 17.164 56.6402C17.0873 56.6724 17.005 56.689 16.9218 56.6889Z" fill="#C4001A"/>
<path d="M30.5 59.018C31.7328 59.018 32.7322 58.0186 32.7322 56.7858C32.7322 55.553 31.7328 54.5536 30.5 54.5536C29.2672 54.5536 28.2678 55.553 28.2678 56.7858C28.2678 58.0186 29.2672 59.018 30.5 59.018Z" fill="#FF3035"/>
<path d="M22.9109 55.1786C21.5511 55.1786 20.2219 54.7754 19.0913 54.0199C17.9608 53.2645 17.0796 52.1908 16.5592 50.9345C16.0389 49.6783 15.9027 48.296 16.168 46.9623C16.4333 45.6287 17.088 44.4037 18.0495 43.4422C19.011 42.4807 20.236 41.826 21.5696 41.5607C22.9033 41.2954 24.2856 41.4316 25.5418 41.9519C26.7981 42.4723 27.8718 43.3535 28.6272 44.484C29.3827 45.6146 29.7859 46.9438 29.7859 48.3036C29.7838 50.1263 29.0588 51.8738 27.77 53.1627C26.4811 54.4515 24.7336 55.1765 22.9109 55.1786Z" fill="#FF3035"/>
<path d="M12.6429 53.6606C13.3826 53.6606 13.9821 53.061 13.9821 52.3214C13.9821 51.5818 13.3826 50.9822 12.6429 50.9822C11.9033 50.9822 11.3037 51.5818 11.3037 52.3214C11.3037 53.061 11.9033 53.6606 12.6429 53.6606Z" fill="#FF3035"/>
<path d="M12.1964 47.4108C13.1827 47.4108 13.9822 46.6113 13.9822 45.625C13.9822 44.6388 13.1827 43.8392 12.1964 43.8392C11.2102 43.8392 10.4106 44.6388 10.4106 45.625C10.4106 46.6113 11.2102 47.4108 12.1964 47.4108Z" fill="#FF3035"/>
<path d="M14.9866 42.0126C15.8023 42.0126 16.4635 41.3514 16.4635 40.5358C16.4635 39.7201 15.8023 39.0589 14.9866 39.0589C14.171 39.0589 13.5098 39.7201 13.5098 40.5358C13.5098 41.3514 14.171 42.0126 14.9866 42.0126Z" fill="#FF3035"/>
<path d="M16.9212 57.3203C17.6151 57.3203 18.1776 56.7578 18.1776 56.0639C18.1776 55.37 17.6151 54.8075 16.9212 54.8075C16.2273 54.8075 15.6648 55.37 15.6648 56.0639C15.6648 56.7578 16.2273 57.3203 16.9212 57.3203Z" fill="#FF3035"/>
<path d="M22.4642 59.9106C23.2038 59.9106 23.8034 59.311 23.8034 58.5714C23.8034 57.8318 23.2038 57.2322 22.4642 57.2322C21.7246 57.2322 21.125 57.8318 21.125 58.5714C21.125 59.311 21.7246 59.9106 22.4642 59.9106Z" fill="#FF3035"/>
<path d="M33.6249 50.0894C34.6112 50.0894 35.4107 49.2899 35.4107 48.3036C35.4107 47.3173 34.6112 46.5178 33.6249 46.5178C32.6386 46.5178 31.8391 47.3173 31.8391 48.3036C31.8391 49.2899 32.6386 50.0894 33.6249 50.0894Z" fill="#FF3035"/>
<path d="M31.6938 44.7078C32.476 44.7078 33.1102 44.0737 33.1102 43.2914C33.1102 42.5091 32.476 41.875 31.6938 41.875C30.9115 41.875 30.2773 42.5091 30.2773 43.2914C30.2773 44.0737 30.9115 44.7078 31.6938 44.7078Z" fill="#FF3035"/>
<path d="M28.2677 38.9212C29.254 38.9212 30.0535 38.1217 30.0535 37.1354C30.0535 36.1492 29.254 35.3497 28.2677 35.3497C27.2815 35.3497 26.4819 36.1492 26.4819 37.1354C26.4819 38.1217 27.2815 38.9212 28.2677 38.9212Z" fill="#FF3035"/>
<path d="M21.3648 40.8436C22.1759 40.8436 22.8334 40.1861 22.8334 39.375C22.8334 38.5639 22.1759 37.9064 21.3648 37.9064C20.5538 37.9064 19.8962 38.5639 19.8962 39.375C19.8962 40.1861 20.5538 40.8436 21.3648 40.8436Z" fill="#FF3035"/>
<path d="M22.4271 51.9642C22.9879 51.9642 23.4426 51.5096 23.4426 50.9488C23.4426 50.3879 22.9879 49.9333 22.4271 49.9333C21.8663 49.9333 21.4116 50.3879 21.4116 50.9488C21.4116 51.5096 21.8663 51.9642 22.4271 51.9642Z" fill="#C4001A"/>
<path d="M25.8002 48.9443C26.3907 48.9443 26.8694 48.4656 26.8694 47.8751C26.8694 47.2846 26.3907 46.8059 25.8002 46.8059C25.2097 46.8059 24.731 47.2846 24.731 47.8751C24.731 48.4656 25.2097 48.9443 25.8002 48.9443Z" fill="#C4001A"/>
<path d="M21.4287 47.8572C22.2622 47.8572 22.9379 47.1815 22.9379 46.348C22.9379 45.5144 22.2622 44.8387 21.4287 44.8387C20.5951 44.8387 19.9194 45.5144 19.9194 46.348C19.9194 47.1815 20.5951 47.8572 21.4287 47.8572Z" fill="#C4001A"/>
</svg>
