<svg width="70" height="74" viewBox="0 0 70 74" fill="none" xmlns="http://www.w3.org/2000/svg">
<path d="M66.248 50.9441H63.1273L60.9271 48.7761L58.7269 50.9441H11.2733L8.89111 48.7761L6.87287 50.9441H3.75215C2.13196 50.9441 0.818604 49.6307 0.818604 48.0105V37.2106C0.818604 35.5904 2.13196 34.277 3.75215 34.277H6.87287L9.07307 36.445L11.2733 34.277H58.7269L60.9271 36.445L63.1273 34.277H66.2482C67.8684 34.277 69.1817 35.5904 69.1817 37.2106V48.0105C69.1817 49.6307 67.8682 50.9441 66.248 50.9441Z" fill="#1B53A6"/>
<path d="M52.5324 33.6608C52.1242 33.2194 52.1242 32.5314 52.5324 32.0901C53.7735 30.7479 54.5211 29.0178 54.5211 27.1291C54.5211 22.8614 50.7067 19.4017 46.0012 19.4017C41.2957 19.4017 37.4812 22.8614 37.4812 27.1291C37.4812 29.4108 38.5723 31.461 40.3064 32.8755C38.5723 34.29 37.4812 36.3402 37.4812 38.6219C37.4812 42.8897 41.2958 46.3493 46.0012 46.3493C50.7067 46.3493 54.5211 42.8897 54.5211 38.6219C54.521 36.7331 53.7733 35.003 52.5324 33.6608Z" fill="#355F7F"/>
<path d="M52.5324 32.09C53.7735 30.7477 54.5212 29.0177 54.5212 27.129C54.5212 22.8613 50.7067 19.4016 46.0012 19.4016C45.2403 19.4016 44.503 19.4934 43.801 19.6632C47.4397 20.5431 50.1208 23.5515 50.1208 27.129C50.1208 29.0177 49.3731 30.7479 48.132 32.09C47.7239 32.5314 47.7239 33.2194 48.132 33.6606C49.3731 35.0029 50.1208 36.7329 50.1208 38.6218C50.1208 42.1992 47.4397 45.2077 43.801 46.0876C44.503 46.2574 45.2403 46.3492 46.0012 46.3492C50.7067 46.3492 54.5212 42.8895 54.5212 38.6218C54.5212 36.7331 53.7735 35.0029 52.5324 33.6606C52.1243 33.2194 52.1243 32.5314 52.5324 32.09Z" fill="#305972"/>
<path d="M17.4678 33.6608C17.8759 33.2194 17.8759 32.5314 17.4678 32.0902C16.2267 30.7479 15.479 29.0179 15.479 27.1292C15.479 22.8614 19.2935 19.4018 23.999 19.4018C28.7045 19.4018 32.5189 22.8614 32.5189 27.1292C32.5189 29.4109 31.4279 31.461 29.6938 32.8756C31.4279 34.2901 32.5189 36.3403 32.5189 38.622C32.5189 42.8897 28.7043 46.3494 23.999 46.3494C19.2935 46.3494 15.479 42.8897 15.479 38.622C15.4791 36.7331 16.2268 35.0031 17.4678 33.6608Z" fill="#355F7F"/>
<path d="M63.1272 50.9442H66.2481C67.8683 50.9442 69.1816 49.6308 69.1816 48.0106V37.2106C69.1816 35.5905 67.8683 34.2771 66.2481 34.2771H63.1272L63.1273 34.5702C64.1064 35.0456 64.7812 36.0493 64.7812 37.2108V48.0107C64.7812 49.1722 64.1063 50.176 63.1273 50.6513L63.1272 50.9442Z" fill="#07306D"/>
<path d="M58.7268 34.2769H63.1272V50.9441H58.7268V34.2769Z" fill="#EAF6FF"/>
<path d="M6.8728 34.2769H11.2732V50.9441H6.8728V34.2769Z" fill="#EAF6FF"/>
<path d="M27.8613 42.869C27.5085 43.1642 27.0827 45.5474 26.6091 45.6515L23.0378 44.2683L15.8027 45.8584C11.7664 46.7456 8.89111 50.3214 8.89111 54.4542V68.4994H61.1091V54.4542C61.1091 50.3216 58.2336 46.7456 54.1975 45.8584L46.9624 44.2683L43.3912 45.6515C42.9175 45.5474 42.4917 43.1642 42.1389 42.869H27.8613Z" fill="#F12435"/>
<path d="M42.139 42.869C42.139 42.869 38.9194 41.511 38.9194 40.6184L41.0874 31.6829H28.9129V40.6184C28.9129 41.5108 27.8613 42.869 27.8613 42.869L35.0002 52.2843L42.139 42.869Z" fill="#FFCEBF"/>
<path d="M42.139 42.869C41.4898 42.3256 41.0874 41.511 41.0874 40.6184V31.6829L36.687 33.8831V42.8186C36.687 44.1961 37.6455 45.388 38.9908 45.6838L39.2639 45.7437L42.139 42.869Z" fill="#FFB09E"/>
<path d="M44.3657 46.8651L49.7971 48.0588C53.8334 48.946 56.7087 52.5218 56.7087 56.6545V68.4996H61.1091V54.4543C61.1091 50.3218 58.2336 46.7458 54.1975 45.8586L46.9624 44.2685L44.3657 46.8651Z" fill="#D20526"/>
<path d="M47.4077 18.0901V27.771C47.4077 31.1974 46.0186 34.2996 43.7744 36.5439C42.9763 37.342 42.0701 38.0318 41.0795 38.5896C40.3579 38.996 39.5913 37.1643 38.7894 37.4212C38.112 37.6383 37.4093 39.9665 36.6869 40.0648C36.1354 40.1398 35.5723 40.1785 35.0001 40.1785C32.6811 40.1785 30.5117 39.542 28.6547 38.4345C28.3687 38.2658 28.0915 38.084 27.8217 37.8918C24.6577 35.6446 22.5925 31.9483 22.5925 27.7708V18.09H47.4077V18.0901Z" fill="#FFCEBF"/>
<path d="M47.4078 18.0901V27.771C47.4078 31.1974 46.0187 34.2996 43.7746 36.5439C41.5288 38.7894 38.4266 40.1785 35.0002 40.1785C32.6812 40.1785 30.5118 39.542 28.6549 38.4345C28.3762 38.2511 28.099 38.0707 27.8218 37.8918C32.2031 39.6886 37.0656 38.8319 40.0798 35.7737C43.1337 32.6729 43.0412 28.5776 43.0075 27.7708V18.09H47.4078V18.0901Z" fill="#FFB09E"/>
<path d="M47.4074 14.7389H22.5925V6.82809C22.5925 3.05698 25.6495 0 29.4206 0H40.5794C44.3506 0 47.4075 3.05698 47.4075 6.82809V14.7389H47.4074Z" fill="#C59191"/>
<path d="M40.5794 0H36.179C39.9501 0 43.007 3.05698 43.007 6.82809V14.7389H47.4074V6.82809C47.4074 3.05698 44.3505 0 40.5794 0Z" fill="#B98080"/>
<path d="M19.2338 19.8599H50.7662C51.6478 19.8599 52.3625 19.1452 52.3625 18.2636V16.3352C52.3625 15.4536 51.6478 14.7389 50.7662 14.7389H19.2338C18.3522 14.7389 17.6375 15.4536 17.6375 16.3352V18.2636C17.6375 19.1452 18.3522 19.8599 19.2338 19.8599Z" fill="#685E68"/>
<path d="M50.7661 14.7389H46.3657C47.2474 14.7389 47.9621 15.4536 47.9621 16.3352V18.2636C47.9621 19.1452 47.2474 19.8599 46.3657 19.8599H50.7661C51.6478 19.8599 52.3625 19.1452 52.3625 18.2636V16.3352C52.3625 15.4536 51.6478 14.7389 50.7661 14.7389Z" fill="#554E56"/>
<path d="M29.0136 26.961C28.406 26.961 27.9136 26.4685 27.9136 25.861V23.4665C27.9136 22.8589 28.4061 22.3665 29.0136 22.3665C29.6211 22.3665 30.1136 22.8591 30.1136 23.4665V25.861C30.1138 26.4685 29.6212 26.961 29.0136 26.961Z" fill="#554E56"/>
<path d="M40.9864 26.961C40.3788 26.961 39.8862 26.4685 39.8862 25.861V23.4665C39.8862 22.8589 40.3788 22.3665 40.9864 22.3665C41.594 22.3665 42.0866 22.8591 42.0866 23.4665V25.861C42.0864 26.4685 41.5939 26.961 40.9864 26.961Z" fill="#554E56"/>
<path d="M35.0001 34.5899C34.9789 34.5899 34.9578 34.5898 34.9364 34.5897C33.678 34.5765 32.6866 34.1747 32.0764 33.8401C31.5437 33.5479 31.3487 32.8793 31.6409 32.3465C31.933 31.8139 32.6016 31.6187 33.1345 31.9111C33.524 32.1247 34.1568 32.3812 34.9594 32.3896C35.7965 32.3987 36.4586 32.1342 36.8653 31.9111C37.3981 31.619 38.0668 31.8139 38.3589 32.3465C38.6511 32.8793 38.4562 33.5479 37.9234 33.8401C37.2966 34.1838 36.2843 34.5899 35.0001 34.5899Z" fill="#FFB09E"/>
<path d="M48.9944 25.7168H47.4075V19.8599H48.9944C50.6117 19.8599 51.9229 21.1711 51.9229 22.7884C51.9229 24.4058 50.6117 25.7168 48.9944 25.7168Z" fill="#FFCEBF"/>
<path d="M21.0684 25.7168H22.5923V19.8599H21.0684C19.4509 19.8599 18.1399 21.1711 18.1399 22.7884C18.1399 24.4058 19.4511 25.7168 21.0684 25.7168Z" fill="#FFB09E"/>
<path d="M46.9624 44.2685L43.3912 43.4837C42.9174 43.3796 42.4933 43.1625 42.1405 42.8672L35.2075 49.8003C35.0929 49.9149 34.9072 49.9149 34.7927 49.8003L27.8597 42.8672C27.5069 43.1625 27.0827 43.3796 26.6091 43.4837L23.0378 44.2685L32.9258 54.1564C34.0715 55.3021 35.9289 55.3021 37.0746 54.1564L46.9624 44.2685Z" fill="#D20526"/>
<path d="M39.2639 45.7439L44.3657 46.8651L46.9624 44.2685L43.3912 43.4837C42.9175 43.3796 42.4917 43.1644 42.1389 42.8691L39.2639 45.7439Z" fill="#C4001A"/>
<path d="M7.7398 74C6.9297 74 6.27295 73.3433 6.27295 72.5332V55.8222C6.27295 54.748 7.42356 54.0381 8.42574 54.4941L20.6363 60.049V74H7.7398Z" fill="#8DDAA7"/>
<path d="M49.3628 60.0493V74H20.637V60.0493L33.7165 54.0985C34.1227 53.9136 34.5614 53.8213 34.9999 53.8213C35.4384 53.8213 35.8771 53.9136 36.2833 54.0985L49.3628 60.0493Z" fill="#8DDAA7"/>
<path d="M49.3635 74V60.049L61.5741 54.4941C62.5763 54.0381 63.7269 54.748 63.7269 55.8222V72.5332C63.7269 73.3433 63.0701 74 62.26 74H49.3635Z" fill="#B0E6A0"/>
<path d="M61.5741 54.4941L59.2941 55.5313C59.3133 55.6251 59.3265 55.7213 59.3265 55.8222V72.5332C59.3265 73.3433 58.6697 74.0001 57.8596 74.0001H62.26C63.0701 74.0001 63.7269 73.3433 63.7269 72.5332V55.8222C63.7269 54.7479 62.5763 54.0381 61.5741 54.4941Z" fill="#8DDAA7"/>
<path d="M34.9999 53.8213V74H20.637V60.0493L33.7165 54.0985C34.1227 53.9136 34.5614 53.8213 34.9999 53.8213Z" fill="#B0E6A0"/>
<path d="M66.2863 70.6996H62.0023C60.5869 70.6996 59.4395 69.5522 59.4395 68.1368V62.851C59.4395 61.4356 60.5869 60.288 62.0024 60.288H66.2862C66.7699 60.288 67.1867 60.6251 67.2901 61.0977C67.5734 62.3928 67.7996 64.0247 67.7618 65.9065C67.7312 67.4323 67.5341 68.7761 67.2902 69.8901C67.1867 70.3626 66.7699 70.6996 66.2863 70.6996Z" fill="#FFCEBF"/>
<path d="M67.2901 61.0977C67.1868 60.6251 66.7699 60.288 66.2862 60.288H62.0024C61.9776 60.288 61.9534 60.2911 61.9287 60.2918C62.3937 60.3113 62.7894 60.6394 62.8897 61.0977C63.173 62.3928 63.3992 64.0247 63.3615 65.9065C63.3308 67.4324 63.1337 68.7761 62.8898 69.8901C62.7895 70.3484 62.3938 70.6765 61.9289 70.696C61.9536 70.6967 61.9776 70.6998 62.0024 70.6998H66.2865C66.7702 70.6998 67.1869 70.3627 67.2904 69.8901C67.5342 68.7761 67.7314 67.4324 67.762 65.9065C67.7996 64.0247 67.5734 62.3928 67.2901 61.0977Z" fill="#FFB09E"/>
<path d="M3.71377 70.6996H7.99782C9.41322 70.6996 10.5607 69.5522 10.5607 68.1368V62.851C10.5607 61.4356 9.41322 60.288 7.99768 60.288H3.71392C3.23017 60.288 2.81334 60.6251 2.71 61.0977C2.42672 62.3928 2.20053 64.0247 2.23825 65.9065C2.26889 67.4323 2.46604 68.7761 2.70986 69.8901C2.81334 70.3626 3.23017 70.6996 3.71377 70.6996Z" fill="#FFCEBF"/>
<path d="M7.99788 60.288H3.71397C3.69937 60.288 3.6855 60.2912 3.67104 60.2918C5.05218 60.3311 6.1603 61.4603 6.1603 62.851V68.1368C6.1603 69.5273 5.05204 70.6567 3.6709 70.696C3.68535 70.6966 3.69923 70.6998 3.71368 70.6998H7.99773C9.41312 70.6998 10.5606 69.5523 10.5606 68.1369V62.8511C10.5607 61.4355 9.41327 60.288 7.99788 60.288Z" fill="#FFB09E"/>
</svg>
