<svg width="72" height="74" viewBox="0 0 72 74" fill="none" xmlns="http://www.w3.org/2000/svg">
<path d="M60.0669 18.7051C59.455 18.7051 58.9591 18.2091 58.9591 17.5973V5.90007C58.9591 4.61721 57.9154 3.57355 56.6326 3.57355H50.7238C49.441 3.57355 48.3973 4.61721 48.3973 5.90007V17.5973C48.3973 18.2091 47.9014 18.7051 47.2895 18.7051C46.6775 18.7051 46.1816 18.2091 46.1816 17.5973V5.90007C46.1816 3.39563 48.2192 1.35803 50.7237 1.35803H56.6324C59.1368 1.35803 61.1744 3.39563 61.1744 5.90007V17.5973C61.1747 18.2091 60.6787 18.7051 60.0669 18.7051Z" fill="#E9A52D"/>
<path d="M56.6329 0H50.724C47.4709 0 44.8242 2.6468 44.8242 5.90005V7.6775C44.8242 9.03711 45.9305 10.1432 47.2901 10.1432C48.6497 10.1432 49.7558 9.03711 49.7558 7.6775V5.90005C49.7558 5.36601 50.1901 4.93141 50.7241 4.93141H56.633C57.1672 4.93141 57.6017 5.36587 57.6017 5.90005V7.6775C57.6017 9.03711 58.7077 10.1432 60.0674 10.1432C61.427 10.1432 62.5332 9.03711 62.5332 7.6775V5.90005C62.5329 2.6468 59.8861 0 56.6329 0Z" fill="#7E8B96"/>
<path d="M62.6542 73.8904C61.5895 73.8904 60.7263 73.0273 60.7263 71.9625V68.868H64.582V71.9625C64.5821 73.0273 63.719 73.8904 62.6542 73.8904Z" fill="#7E8B96"/>
<path d="M44.7026 73.8905C43.6378 73.8905 42.7747 73.0274 42.7747 71.9626V68.868H46.6303V71.9626C46.6305 73.0274 45.7673 73.8905 44.7026 73.8905Z" fill="#7E8B96"/>
<path d="M67.7106 17.5973H39.6463C37.6619 17.5973 36.0532 19.2059 36.0532 21.1903V65.275C36.0532 67.2594 37.6619 68.868 39.6463 68.868H67.7106C69.695 68.868 71.3037 67.2594 71.3037 65.275V21.1903C71.3037 19.2059 69.695 17.5973 67.7106 17.5973Z" fill="#F12435"/>
<path d="M67.7106 17.5973H64.1846C66.1688 17.5973 67.7776 19.2059 67.7776 21.1903V65.275C67.7776 67.2594 66.169 68.868 64.1846 68.868H67.7106C69.6948 68.868 71.3036 67.2594 71.3036 65.275V21.1903C71.3036 19.2059 69.695 17.5973 67.7106 17.5973Z" fill="#D20526"/>
<path d="M43.5392 62.7333C42.9273 62.7333 42.4314 62.2373 42.4314 61.6255V22.7038C42.4314 22.092 42.9273 21.596 43.5392 21.596C44.1512 21.596 44.6471 22.092 44.6471 22.7038V61.6255C44.6469 62.2373 44.151 62.7333 43.5392 62.7333Z" fill="#D20526"/>
<path d="M50.2988 62.7333C49.6868 62.7333 49.1909 62.2373 49.1909 61.6255V22.7038C49.1909 22.092 49.6868 21.596 50.2988 21.596C50.9107 21.596 51.4066 22.092 51.4066 22.7038V61.6255C51.4066 62.2373 50.9107 62.7333 50.2988 62.7333Z" fill="#D20526"/>
<path d="M57.0583 62.7334C56.4463 62.7334 55.9504 62.2374 55.9504 61.6256V22.7039C55.9504 22.0921 56.4463 21.5961 57.0583 21.5961C57.6702 21.5961 58.1661 22.0921 58.1661 22.7039V61.6256C58.166 62.2374 57.6701 62.7334 57.0583 62.7334Z" fill="#D20526"/>
<path d="M63.8178 62.7333C63.2058 62.7333 62.71 62.2373 62.71 61.6255V22.7038C62.71 22.092 63.2058 21.596 63.8178 21.596C64.4297 21.596 64.9256 22.092 64.9256 22.7038V61.6255C64.9256 62.2373 64.4297 62.7333 63.8178 62.7333Z" fill="#D20526"/>
<path d="M26.7238 33.3131C26.1118 33.3131 25.616 32.8171 25.616 32.2053V29.2583C25.616 27.7171 24.3622 26.4633 22.8212 26.4633C21.2799 26.4633 20.0262 27.7171 20.0262 29.2583V32.2053C20.0262 32.8171 19.5303 33.3131 18.9184 33.3131C18.3064 33.3131 17.8105 32.8171 17.8105 32.2053V29.2583C17.8105 26.4954 20.0583 24.2478 22.8212 24.2478C25.5839 24.2478 27.8316 26.4954 27.8316 29.2583V32.2053C27.8316 32.8171 27.3357 33.3131 26.7238 33.3131Z" fill="#A3847E"/>
<path d="M5.99341 70.8569V35.3484C5.99341 33.6125 7.40071 32.2053 9.13653 32.2053H36.5058C38.2418 32.2053 39.649 33.6126 39.649 35.3484V70.8567C39.649 72.5927 38.2417 73.9998 36.5058 73.9998H9.13653C7.40056 74 5.99341 72.5927 5.99341 70.8569Z" fill="#C59191"/>
<path d="M36.5058 32.2053H33.1064C34.8424 32.2053 36.2496 33.6126 36.2496 35.3484V70.8568C36.2496 72.5927 34.8423 73.9999 33.1064 73.9999H36.5058C38.2418 73.9999 39.6489 72.5926 39.6489 70.8568V35.3484C39.6491 33.6125 38.2418 32.2053 36.5058 32.2053Z" fill="#B98080"/>
<path d="M5.99341 41.9167V35.3484C5.99341 33.6125 7.40071 32.2053 9.13653 32.2053H36.5058C38.2418 32.2053 39.649 33.6126 39.649 35.3484V41.9167C39.649 43.6526 38.2417 45.0598 36.5058 45.0598H9.13653C7.40056 45.0599 5.99341 43.6526 5.99341 41.9167Z" fill="#1B53A6"/>
<path d="M36.5058 32.2053H33.1064C34.8424 32.2053 36.2496 33.6126 36.2496 35.3484V41.9167C36.2496 43.6526 34.8423 45.0598 33.1064 45.0598H36.5058C38.2418 45.0598 39.6489 43.6525 39.6489 41.9167V35.3484C39.6491 33.6125 38.2418 32.2053 36.5058 32.2053Z" fill="#07306D"/>
<path d="M12.0771 58.1104V66.228C12.0771 67.0959 12.7807 67.7996 13.6488 67.7996H31.9938C32.8617 67.7996 33.5655 67.096 33.5655 66.228V58.1104C33.5655 57.2425 32.8619 56.5388 31.9938 56.5388H13.6488C12.7809 56.5388 12.0771 57.2423 12.0771 58.1104Z" fill="#F4E2C1"/>
<path d="M41.8031 56.73H39.6492V69.4862H41.8031C43.5391 69.4862 44.9462 68.0789 44.9462 66.343V59.8732C44.9462 58.1373 43.5391 56.73 41.8031 56.73Z" fill="#1B53A6"/>
<path d="M5.99351 56.73H3.83941C2.10345 56.73 0.696289 58.1373 0.696289 59.8731V66.3429C0.696289 68.0789 2.10359 69.486 3.83941 69.486H5.99336V56.73H5.99351Z" fill="#1B53A6"/>
<path d="M30.0925 32.2053H33.8855V48.4502H30.0925V32.2053Z" fill="#E9A52D"/>
<path d="M11.7573 32.2053H15.5503V48.4502H11.7573V32.2053Z" fill="#E9A52D"/>
<path d="M34.8005 51.5021H29.1769C28.6466 51.5021 28.2168 51.0723 28.2168 50.542V49.4102C28.2168 48.8799 28.6466 48.4501 29.1769 48.4501H34.8005C35.3308 48.4501 35.7606 48.8799 35.7606 49.4102V50.542C35.7606 51.0723 35.3308 51.5021 34.8005 51.5021Z" fill="#D20526"/>
<path d="M16.4654 51.5021H10.842C10.3117 51.5021 9.88184 51.0723 9.88184 50.542V49.4102C9.88184 48.8799 10.3117 48.4501 10.842 48.4501H16.4655C16.9958 48.4501 17.4256 48.8799 17.4256 49.4102V50.542C17.4255 51.0723 16.9957 51.5021 16.4654 51.5021Z" fill="#D20526"/>
</svg>
