<svg width="16" height="16" viewBox="0 0 16 16" fill="none" xmlns="http://www.w3.org/2000/svg">
<path d="M15.1381 8.19535L7.80475 0.86202C7.67967 0.737111 7.51018 0.666871 7.33341 0.666687H1.33341C1.1566 0.666687 0.987034 0.736925 0.86201 0.861949C0.736986 0.986973 0.666748 1.15654 0.666748 1.33335V7.33335C0.666748 7.51002 0.736748 7.68002 0.862081 7.80469L8.19541 15.138C8.25718 15.2001 8.33062 15.2494 8.41151 15.2831C8.4924 15.3167 8.57914 15.334 8.66675 15.334C8.75435 15.334 8.84109 15.3167 8.92198 15.2831C9.00287 15.2494 9.07631 15.2001 9.13808 15.138L15.1381 9.13802C15.2 9.07616 15.2492 9.00269 15.2827 8.92181C15.3163 8.84094 15.3335 8.75424 15.3335 8.66669C15.3335 8.57913 15.3163 8.49243 15.2827 8.41156C15.2492 8.33068 15.2 8.25721 15.1381 8.19535ZM4.66675 6.00002C4.48919 6.00404 4.31262 5.97254 4.1474 5.90737C3.98218 5.84221 3.83165 5.74469 3.70463 5.62055C3.57762 5.49641 3.47669 5.34814 3.40777 5.18446C3.33884 5.02077 3.30332 4.84497 3.30327 4.66736C3.30323 4.48976 3.33867 4.31393 3.40751 4.15021C3.47635 3.98649 3.57721 3.83818 3.70416 3.71397C3.83111 3.58976 3.98159 3.49217 4.14678 3.42693C4.31196 3.36168 4.48852 3.33009 4.66608 3.33402C5.01446 3.34172 5.34597 3.4855 5.58966 3.73458C5.83335 3.98366 5.96985 4.31823 5.96994 4.66669C5.97002 5.01515 5.83369 5.3498 5.59013 5.599C5.34656 5.8482 5.01512 5.99214 4.66675 6.00002Z" fill="#D20526"/>
</svg>
