<svg width="22" height="20" viewBox="0 0 22 20" fill="none" xmlns="http://www.w3.org/2000/svg">
<path d="M0.5 19.5H21.5C21.6326 19.5 21.7598 19.4473 21.8536 19.3535C21.9473 19.2598 22 19.1326 22 19V15.5C22 15.3674 21.9473 15.2402 21.8536 15.1464C21.7598 15.0527 21.6326 15 21.5 15H20.5C20.1022 15 19.7207 14.842 19.4394 14.5607C19.158 14.2793 19 13.8978 19 13.5C19 13.1022 19.158 12.7206 19.4394 12.4393C19.7207 12.158 20.1022 12 20.5 12H21.5C21.6326 12 21.7598 11.9473 21.8536 11.8535C21.9473 11.7598 22 11.6326 22 11.5V8C22 7.86739 21.9473 7.74021 21.8536 7.64645C21.7598 7.55268 21.6326 7.5 21.5 7.5H0.5C0.367392 7.5 0.240215 7.55268 0.146447 7.64645C0.0526784 7.74021 0 7.86739 0 8V11.5C0 11.6326 0.0526784 11.7598 0.146447 11.8535C0.240215 11.9473 0.367392 12 0.5 12H1.5C1.89783 12 2.27936 12.158 2.56066 12.4393C2.84197 12.7206 3 13.1022 3 13.5C3 13.8978 2.84197 14.2793 2.56066 14.5607C2.27936 14.842 1.89783 15 1.5 15H0.5C0.367392 15 0.240215 15.0527 0.146447 15.1464C0.0526784 15.2402 0 15.3674 0 15.5V19C0 19.1326 0.0526784 19.2598 0.146447 19.3535C0.240215 19.4473 0.367392 19.5 0.5 19.5ZM15 10C15 9.86739 15.0527 9.74021 15.1465 9.64644C15.2402 9.55268 15.3674 9.5 15.5 9.5C15.6326 9.5 15.7598 9.55268 15.8536 9.64644C15.9473 9.74021 16 9.86739 16 10V11C16 11.1326 15.9473 11.2598 15.8536 11.3535C15.7598 11.4473 15.6326 11.5 15.5 11.5C15.3674 11.5 15.2402 11.4473 15.1465 11.3535C15.0527 11.2598 15 11.1326 15 11V10ZM15 13C15 12.8674 15.0527 12.7402 15.1465 12.6464C15.2402 12.5527 15.3674 12.5 15.5 12.5C15.6326 12.5 15.7598 12.5527 15.8536 12.6464C15.9473 12.7402 16 12.8674 16 13V14C16 14.1326 15.9473 14.2598 15.8536 14.3535C15.7598 14.4473 15.6326 14.5 15.5 14.5C15.3674 14.5 15.2402 14.4473 15.1465 14.3535C15.0527 14.2598 15 14.1326 15 14V13ZM15 16C15 15.8674 15.0527 15.7402 15.1465 15.6464C15.2402 15.5527 15.3674 15.5 15.5 15.5C15.6326 15.5 15.7598 15.5527 15.8536 15.6464C15.9473 15.7402 16 15.8674 16 16V17C16 17.1326 15.9473 17.2598 15.8536 17.3535C15.7598 17.4473 15.6326 17.5 15.5 17.5C15.3674 17.5 15.2402 17.4473 15.1465 17.3535C15.0527 17.2598 15 17.1326 15 17V16ZM6.5 10.5H12.5C12.6326 10.5 12.7598 10.5527 12.8536 10.6464C12.9473 10.7402 13 10.8674 13 11C13 11.1326 12.9473 11.2598 12.8536 11.3535C12.7598 11.4473 12.6326 11.5 12.5 11.5H6.5C6.3674 11.5 6.24022 11.4473 6.14645 11.3535C6.05268 11.2598 6 11.1326 6 11C6 10.8674 6.05268 10.7402 6.14645 10.6464C6.24022 10.5527 6.3674 10.5 6.5 10.5ZM6.5 13H12.5C12.6326 13 12.7598 13.0527 12.8536 13.1464C12.9473 13.2402 13 13.3674 13 13.5C13 13.6326 12.9473 13.7598 12.8536 13.8535C12.7598 13.9473 12.6326 14 12.5 14H6.5C6.3674 14 6.24022 13.9473 6.14645 13.8535C6.05268 13.7598 6 13.6326 6 13.5C6 13.3674 6.05268 13.2402 6.14645 13.1464C6.24022 13.0527 6.3674 13 6.5 13ZM6.5 15.5H12.5C12.6326 15.5 12.7598 15.5527 12.8536 15.6464C12.9473 15.7402 13 15.8674 13 16C13 16.1326 12.9473 16.2598 12.8536 16.3535C12.7598 16.4473 12.6326 16.5 12.5 16.5H6.5C6.3674 16.5 6.24022 16.4473 6.14645 16.3535C6.05268 16.2598 6 16.1326 6 16C6 15.8674 6.05268 15.7402 6.14645 15.6464C6.24022 15.5527 6.3674 15.5 6.5 15.5Z" fill="#475569"/>
<path d="M3.62001 0.809979L2.29001 4.04498C2.26283 4.10552 2.24878 4.17112 2.24878 4.23748C2.24878 4.30384 2.26283 4.36944 2.29001 4.42998C2.34075 4.55215 2.43783 4.64924 2.56001 4.69998L3.50001 5.07998C3.77657 5.19816 4.01121 5.39675 4.17348 5.64997C4.33576 5.90319 4.41816 6.19934 4.41001 6.49998H18.745L4.27501 0.539979C4.21429 0.514569 4.14915 0.501398 4.08333 0.501222C4.0175 0.501047 3.95229 0.513869 3.89144 0.538955C3.83058 0.56404 3.77528 0.600895 3.7287 0.647404C3.68212 0.693913 3.64518 0.749161 3.62001 0.809979Z" fill="#475569"/>
</svg>
