<svg width="24" height="24" viewBox="0 0 24 24" fill="none" xmlns="http://www.w3.org/2000/svg">
<path d="M24 1.40625C24 2.18298 23.3705 2.8125 22.5938 2.8125C21.817 2.8125 21.1875 2.18298 21.1875 1.40625C21.1875 0.629517 21.817 0 22.5938 0C23.3705 0 24 0.629517 24 1.40625ZM1.40625 21.1875C0.629517 21.1875 0 21.817 0 22.5938C0 23.3705 0.629517 24 1.40625 24C2.18298 24 2.8125 23.3705 2.8125 22.5938C2.8125 21.817 2.18298 21.1875 1.40625 21.1875ZM4.21893 20.7656C4.4588 20.7656 4.69885 20.6743 4.88159 20.491C5.2478 20.1248 5.2478 19.5315 4.88159 19.1653C4.51556 18.7993 3.92212 18.7993 3.55609 19.1653C3.18988 19.5315 3.18988 20.1248 3.55609 20.491C3.73883 20.6743 3.97888 20.7656 4.21893 20.7656ZM20.0158 4.96857C20.2557 4.96857 20.4952 4.8772 20.6785 4.69391C21.0447 4.32788 21.0447 3.73444 20.6785 3.36841C20.3124 3.0022 19.719 3.0022 19.353 3.36841C18.9868 3.73444 18.9868 4.32788 19.353 4.69391C19.5357 4.8772 19.7758 4.96857 20.0158 4.96857Z" fill="#475569"/>
<path d="M18.7769 5.23812L18.7619 5.22306C17.9938 4.49266 16.46 5.78986 16.46 5.78986L13.6753 7.98225L10.7436 7.46267C11.1666 6.8496 11.294 6.24099 11.012 5.95903C10.6468 5.59383 9.7337 5.91483 8.9726 6.67594C8.83948 6.80906 8.72019 6.94683 8.61531 7.08549L6.36432 6.68655L4.86494 7.96411L10.977 10.7687L7.05856 15.5034L4.61807 15.0458L4 15.663L8.33708 20L8.95419 19.3819L8.49664 16.9414L13.2314 13.023L16.0359 19.135L17.3135 17.6356L16.9146 15.3846C17.0532 15.2797 17.191 15.1605 17.3241 15.0273C18.0852 14.2662 18.4062 13.3532 18.0411 12.988C17.7591 12.706 17.1504 12.8334 16.5373 13.2563L16.0178 10.3247L18.2101 7.53996C18.2101 7.53996 19.5074 6.00614 18.7769 5.23812Z" fill="#475569"/>
</svg>
