<svg width="20" height="20" viewBox="0 0 20 20" fill="none" xmlns="http://www.w3.org/2000/svg">
<path d="M18.876 1.14232L18.8577 1.12394C17.9208 0.233037 16.05 1.8153 16.05 1.8153L12.6533 4.48948L9.07739 3.85573C9.59325 3.10793 9.74864 2.36557 9.40472 2.02165C8.95926 1.57619 7.84551 1.96774 6.91715 2.8961C6.75478 3.05848 6.60928 3.22652 6.48136 3.39565L3.7357 2.90904L1.90682 4.46735L9.36202 7.88825L4.5825 13.6634L1.6057 13.1053L0.851807 13.8581L6.14198 19.1481L6.8947 18.3943L6.33661 15.4175L12.1118 10.6379L15.5327 18.0931L17.091 16.2642L16.6044 13.5185C16.7736 13.3906 16.9416 13.2452 17.104 13.0828C18.0324 12.1544 18.4239 11.0407 17.9785 10.5953C17.6345 10.2513 16.8921 10.4067 16.1443 10.9226L15.5105 7.34675L18.1847 3.94999C18.1847 3.95004 19.767 2.07912 18.876 1.14232Z" fill="#D20526"/>
</svg>
