<svg width="280" height="34" viewBox="0 0 280 34" fill="none" xmlns="http://www.w3.org/2000/svg">
<path d="M32.2098 25.4197C32.2098 25.4197 35.4482 24.4795 39.1741 22.4947L34.0205 21.4501C36.1098 21.5894 38.2339 21.7286 40.2536 21.8679C41.2286 21.3108 42.1688 20.684 43.109 19.9876L34.9955 19.709C38.2688 19.3608 41.5768 19.0474 44.6063 18.7688C45.2331 18.2117 45.8599 17.6197 46.417 16.9929L36.1447 17.9331C40.1491 16.9929 44.2232 16.1224 47.7054 15.3563C48.0884 14.7992 48.4367 14.2072 48.75 13.5804L36.9455 15.9483C41.3331 14.4161 45.825 12.9536 49.4813 11.7C49.4813 11.6652 49.5161 11.6304 49.5161 11.5608C49.7599 10.7599 49.934 9.99378 50.1429 9.29735L37.7116 13.9983C42.3081 11.4911 47.0786 9.01878 50.7001 7.06877C52.0581 1.2884 51.5706 0 51.5706 0C46.2081 7.34735 47.2527 7.86967 34.0205 14.2072C32.9411 14.7295 31.9312 15.3911 30.9911 16.2268C21.2062 25.1412 27.683 31.2349 41.7857 31.7224C42.7956 30.5385 36.7366 25.8028 32.2098 25.4197Z" fill="#D20526"/>
<path d="M19.4304 25.4197C19.4304 25.4197 16.192 24.4795 12.4661 22.4947L17.6196 21.4501C15.5303 21.5894 13.4062 21.7286 11.3866 21.8679C10.4116 21.3108 9.4714 20.684 8.53122 19.9876L16.6446 19.709C13.3714 19.3608 10.0634 19.0474 7.03389 18.7688C6.4071 18.2117 5.78032 17.6197 5.22317 16.9929L15.4955 17.9331C11.491 16.9929 7.41693 16.1224 3.93477 15.3563C3.55174 14.7992 3.20352 14.2072 2.89013 13.5804L14.6946 15.9483C10.3071 14.4161 5.81514 12.9536 2.15888 11.7C2.15888 11.6652 2.12405 11.6304 2.12405 11.5608C1.8803 10.7599 1.7062 9.99378 1.49727 9.29735L13.9286 13.9983C9.29729 11.4911 4.52674 9.01878 0.940121 7.06877C-0.383097 1.2884 0.0695829 0 0.0695829 0C5.4321 7.34735 4.38745 7.86967 17.6196 14.2072C18.6991 14.7295 19.7089 15.3911 20.6491 16.2268C30.434 25.1412 23.9572 31.2349 9.85444 31.7224C8.87943 30.5385 14.9384 25.8028 19.4304 25.4197Z" fill="#D20526"/>
<path d="M64.002 27.0912H61.2859V7.69556H73.4038V10.0634H64.002V16.0875H72.8118V18.4206H64.002V27.0912Z" fill="#D20526"/>
<path d="M79.3583 27.0911H76.7815V6.37231H79.3583V27.0911Z" fill="#D20526"/>
<path d="M88.7948 24.3054H88.8645L92.4511 14.1027H95.202L88.8993 30.1554C88.6903 30.7125 88.4466 31.2 88.2028 31.6179C87.9591 32.0358 87.6457 32.4188 87.2975 32.6974C86.9493 32.9759 86.5314 33.2197 86.0787 33.3938C85.626 33.5679 85.0689 33.6375 84.4073 33.6375C84.1287 33.6375 83.8502 33.6375 83.5716 33.6027C83.293 33.5679 83.0144 33.5331 82.701 33.4634L82.9448 31.2C83.3975 31.3393 83.8153 31.409 84.2332 31.409C84.8948 31.409 85.4171 31.2349 85.7305 30.8518C86.0439 30.4688 86.3573 29.9465 86.6359 29.25L87.4716 27.0911L81.9001 14.1027H84.7903L88.7948 24.3054Z" fill="#D20526"/>
<path d="M114.424 24.0616C113.657 25.1063 112.648 25.942 111.429 26.6036C110.21 27.2652 108.748 27.5786 107.007 27.5786C105.544 27.5786 104.151 27.3349 102.898 26.8125C101.644 26.325 100.565 25.5938 99.6592 24.6884C98.7539 23.7831 98.0574 22.7036 97.5351 21.45C97.0128 20.1964 96.769 18.8384 96.769 17.3411C96.769 15.8089 97.0128 14.4509 97.5351 13.1973C98.0574 11.9437 98.7887 10.8643 99.694 9.99373C100.599 9.12319 101.714 8.42676 102.967 7.93926C104.221 7.45176 105.614 7.20801 107.076 7.20801C107.738 7.20801 108.399 7.27765 109.061 7.41694C109.723 7.55622 110.384 7.73033 111.011 8.0089C111.638 8.25265 112.195 8.56605 112.717 8.94908C113.24 9.33212 113.657 9.74998 114.041 10.2375L111.916 11.8741C111.429 11.2125 110.767 10.6902 109.897 10.2375C109.026 9.81962 108.086 9.61069 107.076 9.61069C105.927 9.61069 104.917 9.81962 104.012 10.2375C103.107 10.6553 102.34 11.2125 101.714 11.9089C101.087 12.6053 100.565 13.4411 100.251 14.3812C99.903 15.3214 99.7289 16.3313 99.7289 17.3759C99.7289 18.4554 99.903 19.5 100.251 20.4402C100.599 21.3804 101.087 22.2161 101.714 22.9125C102.34 23.609 103.107 24.1661 104.012 24.584C104.917 25.0018 105.927 25.1759 107.041 25.1759C108.121 25.1759 109.131 24.967 110.036 24.5143C110.941 24.0616 111.673 23.4348 112.265 22.5991L114.424 24.0616Z" fill="#D20526"/>
<path d="M124.626 18.6643C124.626 17.6893 124.348 16.9928 123.756 16.5053C123.164 16.0526 122.398 15.8089 121.423 15.8089C120.691 15.8089 119.995 15.9482 119.368 16.2268C118.707 16.5053 118.184 16.8535 117.732 17.3062L116.374 15.6696C117 15.0776 117.801 14.5901 118.707 14.2419C119.612 13.8937 120.622 13.7196 121.666 13.7196C122.607 13.7196 123.408 13.8589 124.104 14.1026C124.8 14.3812 125.358 14.7294 125.775 15.1821C126.228 15.6348 126.541 16.1919 126.75 16.7839C126.959 17.4107 127.064 18.0723 127.064 18.7687V24.4446C127.064 24.8973 127.064 25.35 127.099 25.8375C127.133 26.325 127.168 26.708 127.238 27.0214H124.905C124.766 26.3946 124.696 25.7679 124.696 25.1759H124.661C124.174 25.8723 123.582 26.3946 122.85 26.7777C122.119 27.1607 121.283 27.3696 120.274 27.3696C119.751 27.3696 119.229 27.3 118.672 27.1607C118.115 27.0214 117.592 26.8125 117.14 26.4991C116.687 26.1857 116.304 25.7679 115.991 25.2804C115.677 24.758 115.538 24.1312 115.538 23.4C115.538 22.425 115.816 21.6241 116.339 21.0669C116.861 20.475 117.557 20.0571 118.428 19.7437C119.299 19.4303 120.239 19.2562 121.318 19.1518C122.398 19.0473 123.477 19.0125 124.591 19.0125V18.6643H124.626ZM123.999 20.8928C123.373 20.8928 122.711 20.9277 122.015 20.9625C121.318 20.9973 120.691 21.1366 120.169 21.2759C119.612 21.45 119.159 21.6937 118.776 22.0071C118.428 22.3205 118.219 22.7732 118.219 23.3303C118.219 23.7134 118.289 24.0268 118.463 24.3054C118.602 24.5491 118.811 24.758 119.09 24.9321C119.368 25.1062 119.612 25.2107 119.925 25.2804C120.239 25.35 120.552 25.3848 120.9 25.3848C122.119 25.3848 123.024 25.0366 123.686 24.3054C124.348 23.5741 124.661 22.6687 124.661 21.5893V20.8928H123.999Z" fill="#D20526"/>
<path d="M137.475 16.2268H134.028V22.9822C134.028 23.7483 134.167 24.3403 134.481 24.6537C134.759 25.0019 135.247 25.176 135.874 25.176C136.117 25.176 136.361 25.1412 136.64 25.1063C136.918 25.0715 137.162 24.9671 137.371 24.8974L137.441 27.0215C137.127 27.126 136.779 27.2305 136.396 27.2653C136.013 27.3349 135.63 27.3697 135.247 27.3697C134.028 27.3697 133.088 27.0215 132.426 26.3599C131.765 25.6983 131.451 24.6885 131.451 23.3304V16.2268H128.944V14.1027H131.451V10.3768H133.993V14.1027H137.441V16.2268H137.475Z" fill="#D20526"/>
<path d="M142.838 16.0875C143.151 15.4607 143.674 14.9036 144.44 14.4509C145.171 13.9982 146.042 13.7545 146.947 13.7545C147.783 13.7545 148.514 13.8938 149.106 14.1723C149.698 14.4509 150.22 14.834 150.603 15.3215C151.021 15.809 151.3 16.3661 151.509 16.9929C151.718 17.6197 151.787 18.3161 151.787 19.0474V27.0911H149.21V19.8831C149.21 19.3608 149.176 18.8384 149.071 18.3857C149.001 17.8982 148.827 17.4804 148.618 17.1322C148.41 16.7491 148.096 16.4706 147.713 16.2616C147.33 16.0527 146.843 15.9482 146.251 15.9482C145.241 15.9482 144.405 16.3313 143.743 17.1322C143.082 17.8982 142.768 18.9429 142.768 20.2661V27.1608H140.192V6.37231H142.768V16.0527H142.838V16.0875Z" fill="#D20526"/>
<path d="M164.218 18.6643C164.218 17.6893 163.94 16.9928 163.348 16.5053C162.756 16.0526 161.99 15.8089 161.015 15.8089C160.284 15.8089 159.587 15.9482 158.96 16.2268C158.299 16.5053 157.776 16.8535 157.324 17.3062L155.966 15.6696C156.593 15.0776 157.393 14.5901 158.299 14.2419C159.204 13.8937 160.214 13.7196 161.259 13.7196C162.199 13.7196 163 13.8589 163.696 14.1026C164.393 14.3812 164.95 14.7294 165.368 15.1821C165.82 15.6348 166.134 16.1919 166.343 16.7839C166.552 17.4107 166.656 18.0723 166.656 18.7687V24.4446C166.656 24.8973 166.656 25.35 166.691 25.8375C166.726 26.325 166.76 26.708 166.83 27.0214H164.497C164.358 26.3946 164.288 25.7679 164.288 25.1759H164.218C163.731 25.8723 163.139 26.3946 162.408 26.7777C161.676 27.1607 160.841 27.3696 159.831 27.3696C159.309 27.3696 158.786 27.3 158.229 27.1607C157.672 27.0214 157.15 26.8125 156.697 26.4991C156.244 26.1857 155.861 25.7679 155.548 25.2804C155.235 24.758 155.095 24.1312 155.095 23.4C155.095 22.425 155.374 21.6241 155.896 21.0669C156.418 20.475 157.115 20.0571 157.985 19.7437C158.856 19.4303 159.796 19.2562 160.876 19.1518C161.955 19.0473 163.035 19.0125 164.149 19.0125V18.6643H164.218ZM163.592 20.8928C162.965 20.8928 162.303 20.9277 161.607 20.9625C160.91 21.0321 160.284 21.1366 159.761 21.2759C159.204 21.45 158.751 21.6937 158.368 22.0071C158.02 22.3205 157.811 22.7732 157.811 23.3303C157.811 23.7134 157.881 24.0268 158.055 24.3054C158.194 24.5491 158.403 24.758 158.682 24.9321C158.96 25.1062 159.204 25.2107 159.518 25.2804C159.831 25.35 160.144 25.3848 160.493 25.3848C161.711 25.3848 162.617 25.0366 163.278 24.3054C163.94 23.5741 164.253 22.6687 164.253 21.5893V20.8928H163.592Z" fill="#D20526"/>
<path d="M175.918 24.3054H175.988L179.575 14.1027H182.326L176.023 30.1554C175.814 30.7125 175.57 31.2 175.326 31.6179C175.083 32.0358 174.769 32.4188 174.421 32.6974C174.073 33.0108 173.655 33.2197 173.202 33.3938C172.75 33.5679 172.192 33.6375 171.531 33.6375C171.252 33.6375 170.974 33.6375 170.695 33.6027C170.417 33.5679 170.138 33.5331 169.825 33.4634L170.068 31.2C170.521 31.3393 170.939 31.409 171.357 31.409C172.018 31.409 172.541 31.2349 172.854 30.8518C173.167 30.4688 173.481 29.9465 173.759 29.25L174.595 27.0911L169.024 14.1027H171.914L175.918 24.3054Z" fill="#D20526"/>
<path d="M185.703 27.0912H182.674L191.066 7.69556H193.538L201.861 27.0912H198.831L196.846 22.3206H187.653L185.703 27.0912ZM188.628 19.9527H195.871L192.25 10.8643L188.628 19.9527Z" fill="#D20526"/>
<path d="M207.293 9.43657C207.293 9.92407 207.118 10.3071 206.805 10.6205C206.457 10.9339 206.074 11.0732 205.586 11.0732C205.099 11.0732 204.716 10.8991 204.402 10.5857C204.089 10.2723 203.915 9.88925 203.915 9.43657C203.915 8.94907 204.089 8.56603 204.402 8.25264C204.716 7.93924 205.134 7.76514 205.586 7.76514C206.074 7.76514 206.457 7.93924 206.805 8.25264C207.118 8.53121 207.293 8.94907 207.293 9.43657ZM206.875 27.0911H204.298V14.1027H206.875V27.0911Z" fill="#D20526"/>
<path d="M211.332 15.5652C211.297 15.0081 211.297 14.5206 211.262 14.1027H213.7C213.735 14.4161 213.77 14.7992 213.77 15.2518C213.804 15.6697 213.804 16.0179 213.804 16.2965H213.874C214.222 15.5304 214.779 14.9036 215.476 14.4509C216.172 13.9983 216.973 13.7545 217.844 13.7545C218.262 13.7545 218.575 13.7893 218.854 13.859L218.749 16.2268C218.401 16.1224 217.983 16.0876 217.565 16.0876C216.938 16.0876 216.416 16.192 215.963 16.4358C215.511 16.6795 215.128 16.9581 214.814 17.3411C214.501 17.7242 214.292 18.1769 214.153 18.6644C214.013 19.1519 213.944 19.709 213.944 20.2313V27.0563H211.367V16.8885C211.367 16.5402 211.332 16.0876 211.332 15.5652Z" fill="#D20526"/>
<path d="M222.231 14.1027L225.156 24.0268H225.226L228.325 14.1027H231.041L234.175 24.0268H234.244L237.169 14.1027H239.886L235.568 27.0911H232.886L229.683 17.3411H229.613L226.444 27.0911H223.763L219.445 14.1027H222.231Z" fill="#D20526"/>
<path d="M250.541 18.6643C250.541 17.6893 250.262 16.9928 249.67 16.5053C249.078 16.0526 248.312 15.8089 247.337 15.8089C246.606 15.8089 245.91 15.9482 245.283 16.2268C244.621 16.5053 244.099 16.8535 243.646 17.3062L242.288 15.6696C242.915 15.0776 243.716 14.5901 244.621 14.2419C245.527 13.8937 246.537 13.7196 247.581 13.7196C248.521 13.7196 249.322 13.8589 250.019 14.1026C250.715 14.3812 251.272 14.7294 251.69 15.1821C252.143 15.6348 252.456 16.1919 252.665 16.7839C252.874 17.4107 252.978 18.0723 252.978 18.7687V24.4446C252.978 24.8973 252.978 25.35 253.013 25.8375C253.048 26.325 253.083 26.708 253.153 27.0214H250.82C250.68 26.3946 250.611 25.7679 250.611 25.1759H250.541C250.053 25.8723 249.462 26.3946 248.73 26.7777C247.999 27.1607 247.163 27.3696 246.153 27.3696C245.631 27.3696 245.109 27.3 244.552 27.1607C243.995 27.0214 243.472 26.8125 243.02 26.4991C242.567 26.1857 242.184 25.7679 241.87 25.2804C241.557 24.758 241.418 24.1312 241.418 23.4C241.418 22.425 241.696 21.6241 242.219 21.0669C242.741 20.475 243.437 20.0571 244.308 19.7437C245.178 19.4303 246.119 19.2562 247.198 19.1518C248.278 19.0473 249.357 19.0125 250.471 19.0125V18.6643H250.541ZM249.914 20.8928C249.287 20.8928 248.626 20.9277 247.929 20.9625C247.233 21.0321 246.606 21.1366 246.084 21.2759C245.527 21.45 245.074 21.6937 244.691 22.0071C244.343 22.3205 244.134 22.7732 244.134 23.3303C244.134 23.7134 244.203 24.0268 244.378 24.3054C244.517 24.5491 244.726 24.758 245.004 24.9321C245.283 25.1062 245.527 25.2107 245.84 25.2804C246.153 25.35 246.467 25.3848 246.815 25.3848C248.034 25.3848 248.939 25.0366 249.601 24.3054C250.262 23.5741 250.576 22.6687 250.576 21.5893V20.8928H249.914Z" fill="#D20526"/>
<path d="M262.206 24.3054H262.276L265.862 14.1027H268.613L262.311 30.1554C262.102 30.7125 261.858 31.2 261.614 31.6179C261.37 32.0358 261.057 32.4188 260.709 32.6974C260.361 33.0108 259.943 33.2197 259.49 33.3938C259.037 33.5679 258.48 33.6375 257.819 33.6375C257.54 33.6375 257.262 33.6375 256.983 33.6027C256.704 33.5679 256.426 33.5331 256.112 33.4634L256.356 31.2C256.809 31.3393 257.227 31.409 257.645 31.409C258.306 31.409 258.828 31.2349 259.142 30.8518C259.455 30.4688 259.769 29.9465 260.047 29.25L260.883 27.0911L255.312 14.1027H258.202L262.206 24.3054Z" fill="#D20526"/>
<path d="M278.12 17.3759C277.841 16.8884 277.423 16.5054 276.901 16.2268C276.379 15.9134 275.787 15.7741 275.125 15.7741C274.847 15.7741 274.533 15.8089 274.255 15.8786C273.976 15.9482 273.697 16.0527 273.488 16.192C273.245 16.3313 273.071 16.5054 272.931 16.7143C272.792 16.9232 272.722 17.2018 272.722 17.4804C272.722 18.0375 272.966 18.4205 273.454 18.6991C273.941 18.9777 274.672 19.2214 275.682 19.4304C276.309 19.5697 276.866 19.7438 277.423 19.9527C277.946 20.1616 278.398 20.4054 278.816 20.7188C279.199 21.0322 279.513 21.3804 279.722 21.7982C279.93 22.2161 280.035 22.7036 280.035 23.2607C280.035 24.0268 279.896 24.6884 279.582 25.2107C279.304 25.7331 278.886 26.1857 278.433 26.4991C277.946 26.8474 277.388 27.0911 276.762 27.2304C276.135 27.3697 275.508 27.4393 274.847 27.4393C273.872 27.4393 272.897 27.2304 271.956 26.8474C271.016 26.4643 270.25 25.8724 269.623 25.1063L271.469 23.5393C271.817 24.0616 272.305 24.4795 272.897 24.8277C273.523 25.1759 274.185 25.35 274.916 25.35C275.23 25.35 275.543 25.3152 275.856 25.2456C276.17 25.1759 276.448 25.0715 276.692 24.9322C276.936 24.7929 277.145 24.584 277.284 24.3402C277.423 24.0965 277.493 23.8179 277.493 23.4348C277.493 22.8429 277.214 22.3902 276.622 22.0768C276.03 21.7982 275.195 21.5197 274.08 21.2411C273.628 21.1366 273.21 20.9973 272.757 20.8581C272.305 20.7188 271.887 20.475 271.538 20.2313C271.19 19.9527 270.877 19.6045 270.633 19.1866C270.389 18.7688 270.285 18.2813 270.285 17.6545C270.285 16.958 270.424 16.3661 270.703 15.8438C270.981 15.3562 271.364 14.9384 271.817 14.625C272.27 14.3116 272.792 14.0679 273.384 13.9286C273.976 13.7893 274.568 13.6848 275.195 13.6848C276.135 13.6848 277.04 13.8589 277.876 14.242C278.747 14.5902 279.408 15.1473 279.896 15.8438L278.12 17.3759Z" fill="#D20526"/>
</svg>
