<svg width="30" height="22" viewBox="0 0 30 22" fill="none" xmlns="http://www.w3.org/2000/svg">
<path d="M28.9999 9.66675H0.999919C0.823108 9.66675 0.653538 9.73699 0.528514 9.86201C0.40349 9.98703 0.333252 10.1566 0.333252 10.3334V11.6667C0.333252 11.8436 0.40349 12.0131 0.528514 12.1382C0.653538 12.2632 0.823108 12.3334 0.999919 12.3334H28.9999C29.1767 12.3334 29.3463 12.2632 29.4713 12.1382C29.5963 12.0131 29.6666 11.8436 29.6666 11.6667V10.3334C29.6666 10.1566 29.5963 9.98703 29.4713 9.86201C29.3463 9.73699 29.1767 9.66675 28.9999 9.66675Z" fill="white"/>
<path d="M28.9999 0.333374H0.999919C0.823108 0.333374 0.653538 0.403612 0.528514 0.528636C0.40349 0.653661 0.333252 0.82323 0.333252 1.00004V2.33337C0.333252 2.51019 0.40349 2.67975 0.528514 2.80478C0.653538 2.9298 0.823108 3.00004 0.999919 3.00004H28.9999C29.1767 3.00004 29.3463 2.9298 29.4713 2.80478C29.5963 2.67975 29.6666 2.51019 29.6666 2.33337V1.00004C29.6666 0.82323 29.5963 0.653661 29.4713 0.528636C29.3463 0.403612 29.1767 0.333374 28.9999 0.333374Z" fill="white"/>
<path d="M29 19H15.6667C15.4899 19 15.3203 19.0702 15.1953 19.1953C15.0702 19.3203 15 19.4899 15 19.6667V21C15 21.1768 15.0702 21.3464 15.1953 21.4714C15.3203 21.5964 15.4899 21.6667 15.6667 21.6667H29C29.1768 21.6667 29.3464 21.5964 29.4714 21.4714C29.5964 21.3464 29.6667 21.1768 29.6667 21V19.6667C29.6667 19.4899 29.5964 19.3203 29.4714 19.1953C29.3464 19.0702 29.1768 19 29 19Z" fill="white"/>
</svg>
