<svg width="24" height="24" viewBox="0 0 24 24" fill="none" xmlns="http://www.w3.org/2000/svg">
<path d="M22.9117 15.4395L19.6305 14.5012C19.3652 14.4253 19.1259 14.2777 18.9391 14.0746C18.7522 13.8715 18.625 13.6207 18.5715 13.35L18.3697 12.3375C19.1535 11.9795 19.818 11.404 20.2842 10.6794C20.7505 9.95483 20.9989 9.11163 21 8.24999V6.18899C21.0186 4.99568 20.5751 3.84139 19.7623 2.9675C18.9495 2.09361 17.8303 1.56779 16.6387 1.49999C15.7494 1.47303 14.8721 1.71028 14.1176 2.18178C13.3631 2.65328 12.7653 3.33785 12.3997 4.14899C13.1154 5.1909 13.4989 6.42499 13.5 7.68899V9.74999C13.4972 10.2956 13.4192 10.8382 13.2682 11.3625C13.6575 11.7696 14.1194 12.1003 14.6302 12.3375L14.4285 13.35C14.3747 13.6205 14.2474 13.8709 14.0606 14.0737C13.8738 14.2766 13.6346 14.424 13.3695 14.4997L12.1042 14.8612L14.3242 15.4957C14.9504 15.6766 15.5009 16.0556 15.8932 16.576C16.2856 17.0964 16.4985 17.73 16.5 18.3817V21C16.4975 21.2561 16.4508 21.5098 16.362 21.75H23.25C23.4489 21.75 23.6397 21.671 23.7803 21.5303C23.921 21.3897 24 21.1989 24 21V16.8817C24 16.5557 23.8937 16.2386 23.6974 15.9784C23.501 15.7182 23.2252 15.529 22.9117 15.4395Z" fill="#D20526"/>
<path d="M13.9117 16.9394L10.6305 16.0012C10.3652 15.9253 10.1259 15.7777 9.93905 15.5745C9.75221 15.3714 9.62502 15.1207 9.5715 14.8499L9.36975 13.8367C10.1534 13.4787 10.8178 12.9034 11.284 12.1789C11.7503 11.4545 11.9988 10.6114 12 9.74994V7.68894C12.0186 6.49563 11.5751 5.34134 10.7623 4.46745C9.94947 3.59356 8.83028 3.06774 7.63875 2.99994C7.03623 2.98136 6.43612 3.08401 5.87403 3.30182C5.31195 3.51963 4.79936 3.84815 4.36669 4.26788C3.93402 4.68761 3.59009 5.18999 3.35532 5.7452C3.12054 6.30041 2.99971 6.89714 3 7.49994V9.74994C3.0008 10.6118 3.2491 11.4554 3.71537 12.1802C4.18165 12.9051 4.84628 13.4808 5.63025 13.8389L5.4285 14.8499C5.3746 15.1203 5.24725 15.3705 5.06043 15.5732C4.87361 15.7759 4.63455 15.9232 4.3695 15.9989L1.08825 16.9394C0.774771 17.0289 0.498978 17.2181 0.30262 17.4783C0.106262 17.7386 2.8395e-05 18.0557 0 18.3817L0 20.9999C0 21.1989 0.0790176 21.3896 0.21967 21.5303C0.360322 21.6709 0.551088 21.7499 0.75 21.7499H14.25C14.4489 21.7499 14.6397 21.6709 14.7803 21.5303C14.921 21.3896 15 21.1989 15 20.9999V18.3817C15 18.0557 14.8937 17.7386 14.6974 17.4783C14.501 17.2181 14.2252 17.0289 13.9117 16.9394Z" fill="#D20526"/>
</svg>
