<svg width="8" height="7" viewBox="0 0 8 7" fill="none" xmlns="http://www.w3.org/2000/svg">
<path d="M4.66192 6.67836L7.90359 1.33036C7.96482 1.22924 7.99807 1.11366 7.99992 0.995462C8.00177 0.877263 7.97216 0.760698 7.91412 0.657713C7.85608 0.554728 7.7717 0.469028 7.66963 0.409396C7.56756 0.349764 7.45147 0.318345 7.33325 0.31836L0.84992 0.31836C0.731657 0.31831 0.615508 0.349721 0.51339 0.40937C0.411271 0.469019 0.326858 0.554759 0.268808 0.657796C0.210759 0.760832 0.181163 0.877456 0.183058 0.995705C0.184952 1.11395 0.218267 1.22957 0.279587 1.33069L3.52125 6.67836C3.58064 6.77647 3.66433 6.85761 3.76424 6.91392C3.86415 6.97024 3.9769 6.99982 4.09159 6.99982C4.20628 6.99982 4.31902 6.97024 4.41893 6.91392C4.51884 6.85761 4.60254 6.77647 4.66192 6.67836Z" fill="#94A3B8"/>
</svg>
