<svg width="16" height="16" viewBox="0 0 16 16" fill="none" xmlns="http://www.w3.org/2000/svg">
<path d="M13.6586 2.3433C12.5401 1.22579 11.1153 0.464988 9.56442 0.157066C8.01356 -0.150856 6.40621 0.00792734 4.94557 0.613345C3.48493 1.21876 2.23656 2.24363 1.35828 3.55841C0.479999 4.87318 0.0112305 6.41883 0.0112305 7.99997C0.0112305 9.58111 0.479999 11.1268 1.35828 12.4415C2.23656 13.7563 3.48493 14.7812 4.94557 15.3866C6.40621 15.992 8.01356 16.1508 9.56442 15.8429C11.1153 15.535 12.5401 14.7742 13.6586 13.6566C15.1565 12.1552 15.9977 10.1209 15.9977 7.99997C15.9977 5.87909 15.1565 3.84479 13.6586 2.3433ZM11.1393 10.186C11.2531 10.3127 11.3141 10.4783 11.3097 10.6486C11.3053 10.8189 11.2358 10.981 11.1156 11.1017C10.9954 11.2225 10.8335 11.2926 10.6633 11.2977C10.493 11.3028 10.3272 11.2426 10.1999 11.1293L8.12661 9.05597C8.09517 9.02495 8.05278 9.00755 8.00861 9.00755C7.96445 9.00755 7.92205 9.02495 7.89061 9.05597L5.81795 11.1293C5.69132 11.2515 5.52223 11.3197 5.34628 11.3197C5.17033 11.3197 5.00124 11.2515 4.87461 11.1293C4.81263 11.0674 4.76346 10.9939 4.72991 10.9129C4.69636 10.832 4.67909 10.7452 4.67909 10.6576C4.67909 10.57 4.69636 10.4833 4.72991 10.4023C4.76346 10.3214 4.81263 10.2479 4.87461 10.186L6.94795 8.1133C6.96345 8.09788 6.97575 8.07954 6.98414 8.05935C6.99253 8.03916 6.99686 8.01751 6.99686 7.99564C6.99686 7.97377 6.99253 7.95212 6.98414 7.93192C6.97575 7.91173 6.96345 7.8934 6.94795 7.87797L4.87461 5.80464C4.75948 5.67803 4.69744 5.51199 4.70135 5.34089C4.70525 5.1698 4.77481 5.00677 4.8956 4.88554C5.0164 4.76432 5.17919 4.69419 5.35026 4.68968C5.52134 4.68517 5.6876 4.74662 5.81461 4.8613L7.88728 6.93464C7.90276 6.95016 7.92115 6.96247 7.9414 6.97087C7.96165 6.97928 7.98336 6.9836 8.00528 6.9836C8.0272 6.9836 8.04891 6.97928 8.06916 6.97087C8.08941 6.96247 8.1078 6.95016 8.12328 6.93464L10.1966 4.8613C10.3217 4.7363 10.4913 4.66611 10.6682 4.66617C10.845 4.66623 11.0146 4.73654 11.1396 4.86164C11.2646 4.98673 11.3348 5.15636 11.3348 5.33321C11.3347 5.51005 11.2644 5.67963 11.1393 5.80464L9.06595 7.87797C9.0348 7.90921 9.01732 7.95153 9.01732 7.99564C9.01732 8.03975 9.0348 8.08206 9.06595 8.1133L11.1393 10.186Z" fill="#D20526"/>
</svg>
